<?xml version="1.0" encoding="UTF-8" standalone="no"?>
<!-- Created with Inkscape (http://www.inkscape.org/) -->

<svg
   width="166.59949mm"
   height="50.957291mm"
   viewBox="0 0 166.59949 50.957291"
   version="1.1"
   id="svg1"
   xmlns:inkscape="http://www.inkscape.org/namespaces/inkscape"
   xmlns:sodipodi="http://sodipodi.sourceforge.net/DTD/sodipodi-0.dtd"
   xmlns="http://www.w3.org/2000/svg"
   xmlns:svg="http://www.w3.org/2000/svg">
  <sodipodi:namedview
     id="namedview1"
     pagecolor="#505050"
     bordercolor="#eeeeee"
     borderopacity="1"
     inkscape:showpageshadow="0"
     inkscape:pageopacity="0"
     inkscape:pagecheckerboard="0"
     inkscape:deskcolor="#505050"
     inkscape:document-units="mm"
     showgrid="true">
    <inkscape:grid
       id="grid1"
       units="mm"
       originx="-21.417749"
       originy="-149.4722"
       spacingx="0.99999998"
       spacingy="1"
       empcolor="#0099e5"
       empopacity="0.30196078"
       color="#0099e5"
       opacity="0.14901961"
       empspacing="5"
       enabled="true"
       visible="true" />
    <inkscape:page
       x="0"
       y="0"
       width="166.59949"
       height="50.957291"
       id="page2"
       margin="0"
       bleed="0" />
  </sodipodi:namedview>
  <defs
     id="defs1" />
  <g
     inkscape:label="Layer 1"
     inkscape:groupmode="layer"
     id="layer1"
     transform="translate(-21.417749,-149.47219)">
    <path
       style="font-weight:850;font-size:36.3325px;font-family:Garet;-inkscape-font-specification:'Garet weight=850';letter-spacing:-1.84971px;stroke-width:0.136247"
       d="m 84.82315,164.48516 h 12.571045 q 3.197265,0 5.522545,1.1263 2.36161,1.12631 3.59691,3.2336 1.27164,2.10728 1.27164,4.97755 0,2.50694 -0.98098,4.4689 -0.94464,1.92562 -2.76127,3.12459 l 4.25091,8.50181 H 98.6295 l -3.015597,-6.75785 H 93.54295 v 6.75785 h -8.7198 z m 11.154078,12.20772 q 1.4533,0 2.216282,-0.69032 0.799315,-0.72665 0.799315,-2.03462 0,-1.3443 -0.799315,-2.03462 Q 97.430528,171.243 95.977228,171.243 H 93.39762 v 5.44988 z m 21.148752,13.77002 q -3.74224,0 -5.92219,-2.25262 -2.14362,-2.25261 -2.14362,-6.14019 v -11.51741 h 8.28381 v 10.5001 q 0,1.3443 0.58132,2.03462 0.58132,0.69032 1.67129,0.69032 1.08998,0 1.70763,-0.72665 0.61765,-0.72665 0.61765,-2.10729 v -10.3911 h 8.28381 v 19.36523 h -5.92219 l -0.79932,-2.03462 q -1.12631,1.2353 -2.76127,1.92562 -1.63496,0.65399 -3.59692,0.65399 z m 15.3356,-19.91022 h 5.88586 l 0.76299,1.96196 q 1.1263,-1.19897 2.65227,-1.81663 1.5623,-0.65398 3.41525,-0.65398 1.96196,0 3.56059,0.72665 1.59863,0.72665 2.61594,2.10729 1.16264,-1.38064 2.83393,-2.10729 1.70763,-0.72665 3.85125,-0.72665 2.39794,0 4.21457,1.01731 1.81662,1.01731 2.7976,2.9066 1.01731,1.85296 1.01731,4.3599 v 11.59007 h -8.28381 v -10.57276 q 0,-1.2353 -0.61765,-1.92562 -0.58132,-0.72665 -1.63496,-0.72665 -1.05365,0 -1.6713,0.72665 -0.58132,0.69032 -0.58132,1.96195 v 10.53643 h -8.02948 v -10.57276 q 0,-1.2353 -0.61765,-1.92562 -0.58132,-0.72665 -1.63497,-0.72665 -1.05364,0 -1.67129,0.72665 -0.58132,0.69032 -0.58132,1.96195 v 10.53643 h -8.28381 z m 42.03997,19.83755 q -3.37892,0 -5.34087,-1.63496 -1.96196,-1.63496 -1.96196,-4.43257 0,-2.6886 1.78029,-4.28723 1.7803,-1.63496 4.79589,-1.63496 h 6.17653 v -1.16264 q 0,-0.72665 -0.61765,-1.19898 -0.58132,-0.50865 -1.48964,-0.50865 -0.83564,0 -1.41696,0.43599 -0.58132,0.43599 -0.65399,1.16264 h -7.62982 q 0.43599,-3.48792 2.9066,-5.26822 2.50694,-1.81662 6.83051,-1.81662 4.90488,0 7.52082,2.28895 2.61594,2.28895 2.61594,6.64885 v 10.93608 h -5.92219 l -0.83565,-2.10729 q -1.23531,1.27164 -2.97927,1.92563 -1.70762,0.65398 -3.77858,0.65398 z m 0.61766,-6.64885 q 0,0.69032 0.54498,1.12631 0.54499,0.39966 1.48964,0.39966 1.30797,0 2.10728,-0.76298 0.79932,-0.76299 0.79932,-2.03462 v -0.25433 h -2.9066 q -0.94465,0 -1.48964,0.43599 -0.54498,0.39966 -0.54498,1.08997 z"
       id="text1"
       aria-label="Ruma"
       inkscape:export-filename="logo-full.svg"
       inkscape:export-xdpi="96"
       inkscape:export-ydpi="96" />
    <g
       id="g1"
       transform="matrix(0.89273836,0,0,1.0336958,8.2105607,-14.710951)">
      <path
         style="fill:#000000;stroke-width:0.0487123"
         d="m 14.794019,183.23344 v 4.2714 l 27.67171,20.62257 h 25.402135 l -0.303825,-4.58693 -31.87176,-20.38958 z"
         id="path10"
         sodipodi:nodetypes="ccccccc" />
      <path
         style="fill:#000000;stroke-width:0.0580194"
         d="m 33.291839,182.86618 v -7.03606 H 46.882326 L 45.99245,171.78951 22.268969,171.1666 v -5.9354 h 28.40509 l 14.570753,1.94752 3.135704,12.24258 -1.598744,3.80844 -17.770047,0.29141 z"
         id="path11"
         sodipodi:nodetypes="cccccccccccc" />
      <path
         style="fill:#000000;stroke-width:0.0487123"
         d="m 33.199529,159.33458 v 4.27881 h 18.877094 v -4.7822 z"
         id="path12" />
    </g>
  </g>
</svg>
